<svg preserveAspectRatio="none" overflow="visible" style="display: block;" width="49.5808" height="49.5809" viewBox="0 0 49.5808 49.5809" fill="none" xmlns="http://www.w3.org/2000/svg">
<g id="Group 6">
<path id="Vector" d="M23.3327 10.2158L28.4339 5.11457C29.4864 4.06106 30.7362 3.22525 32.1119 2.65489C33.4875 2.08452 34.962 1.79077 36.4512 1.79043C37.9404 1.79008 39.415 2.08314 40.7909 2.65287C42.1668 3.22259 43.417 4.05782 44.47 5.11083C45.523 6.16385 46.3583 7.41401 46.928 8.78991C47.4977 10.1658 47.7908 11.6405 47.7904 13.1297C47.7901 14.6188 47.4963 16.0934 46.926 17.469C46.3556 18.8446 45.5198 20.0944 44.4663 21.1469L37.1788 28.4344C36.1261 29.4871 34.8764 30.3221 33.501 30.8918C32.1256 31.4615 30.6514 31.7548 29.1627 31.7548C27.6739 31.7548 26.1998 31.4615 24.8243 30.8918C23.4489 30.3221 22.1992 29.4871 21.1465 28.4344" stroke="white" stroke-width="3.58085" stroke-linecap="round" stroke-linejoin="round"/>
<path id="Vector_2" d="M26.2481 39.3651L21.1469 44.4663C20.0944 45.5198 18.8446 46.3556 17.469 46.926C16.0934 47.4964 14.6188 47.7901 13.1297 47.7905C11.6405 47.7908 10.1658 47.4977 8.78991 46.928C7.41401 46.3583 6.16385 45.5231 5.11083 44.47C4.05782 43.417 3.22259 42.1669 2.65287 40.791C2.08314 39.4151 1.79008 37.9404 1.79043 36.4512C1.79077 34.962 2.08452 33.4875 2.65489 32.1119C3.22525 30.7363 4.06106 29.4865 5.11457 28.434L12.402 21.1465C13.4547 20.0938 14.7044 19.2588 16.0799 18.6891C17.4553 18.1193 18.9294 17.8261 20.4182 17.8261C21.9069 17.8261 23.3811 18.1193 24.7565 18.6891C26.1319 19.2588 27.3817 20.0938 28.4344 21.1465" stroke="white" stroke-width="3.58085" stroke-linecap="round" stroke-linejoin="round"/>
</g>
</svg>
